<svg width="512" height="512" viewBox="0 0 512 512" fill="none" xmlns="http://www.w3.org/2000/svg">
<g clip-path="url(#clip0_0_1)">
<path d="M49 83.5365V313.686C49 314.837 49.3966 315.952 50.1228 316.843L123.627 407.112C131.311 416.549 140.653 424.503 151.193 430.585L255.097 490.538C256.662 491.441 258.592 491.43 260.146 490.509L369.094 425.924C374.158 422.922 378.652 419.05 382.37 414.485L461.877 316.843C462.603 315.952 463 314.837 463 313.686V83.5365C463 81.1653 461.335 79.1202 459.012 78.6401L367.041 59.6237C362.021 58.5858 357.089 57.1634 352.287 55.3693L259.353 20.6438C258.241 20.2282 257.017 20.222 255.901 20.6262L159.258 55.6177C154.758 57.2468 150.148 58.5509 145.462 59.5198L52.9876 78.6401C50.6655 79.1202 49 81.1653 49 83.5365Z" stroke="#1770B5" stroke-width="36"/>
<path d="M361.56 320L275.48 220.48V320H239V97.6H275.48V199.04L361.88 97.6H407.64L311 208.96L409.24 320H361.56Z" fill="#1770B5"/>
<path d="M159.48 320L210.68 231.04H238.52V320H275V97.6H198.2C181.133 97.6 166.733 100.587 155 106.56C143.053 112.533 134.2 120.533 128.44 130.56C122.467 140.587 119.48 151.787 119.48 164.16C119.48 178.667 123.747 191.893 132.28 203.84C140.6 215.573 153.507 223.573 171 227.84L115.96 320H159.48ZM238.52 201.92H198.2C184.547 201.92 174.307 198.507 167.48 191.68C160.44 184.853 156.92 175.68 156.92 164.16C156.92 152.64 160.333 143.68 167.16 137.28C173.987 130.667 184.333 127.36 198.2 127.36H238.52V201.92Z" fill="#1770B5"/>
<path d="M188.571 390H179.429L181.714 382L181.012 381.508C178.576 379.803 178.576 376.197 181.012 374.492C181.475 374.167 181.999 373.938 182.552 373.817L182.807 373.761C183.593 373.589 184.407 373.589 185.193 373.761L185.448 373.817C186.001 373.938 186.525 374.167 186.988 374.492C189.424 376.197 189.424 379.803 186.988 381.508L186.286 382L188.571 390Z" fill="#1770B5" stroke="#1770B5"/>
<path d="M277.632 357.816L281.952 365.496L268.8 370.392L281.952 375.288L277.536 383.16L266.592 374.52L268.608 388.44H259.776L261.6 374.52L250.656 383.352L246.048 375.192L259.104 370.296L246.048 365.592L250.464 357.72L261.696 366.36L259.776 352.344H268.704L266.592 366.36L277.632 357.816ZM326.007 357.816L330.327 365.496L317.175 370.392L330.327 375.288L325.911 383.16L314.967 374.52L316.983 388.44H308.151L309.975 374.52L299.031 383.352L294.423 375.192L307.479 370.296L294.423 365.592L298.839 357.72L310.071 366.36L308.151 352.344H317.079L314.967 366.36L326.007 357.816ZM374.382 357.816L378.702 365.496L365.55 370.392L378.702 375.288L374.286 383.16L363.342 374.52L365.358 388.44H356.526L358.35 374.52L347.406 383.352L342.798 375.192L355.854 370.296L342.798 365.592L347.214 357.72L358.446 366.36L356.526 352.344H365.454L363.342 366.36L374.382 357.816Z" fill="#1770B5"/>
<path d="M233.024 415.848H222.08V328.104H233.024V415.848Z" fill="#1770B5"/>
<path d="M170.547 362.333H205C206.657 362.333 208 363.676 208 365.333V400C208 401.657 206.657 403 205 403H164C162.343 403 161 401.657 161 400V365.333C161 363.676 162.343 362.333 164 362.333H170.547ZM170.547 362.333V350C170.547 344.477 175.024 340 180.547 340H186.25C191.773 340 196.25 344.477 196.25 350V352" stroke="#1770B5" stroke-width="8"/>
</g>
<defs>
<clipPath id="clip0_0_1">
<rect width="512" height="512" fill="white"/>
</clipPath>
</defs>
</svg>
