<?xml version="1.0" standalone="no"?>
<!DOCTYPE svg PUBLIC "-//W3C//DTD SVG 20010904//EN"
 "http://www.w3.org/TR/2001/REC-SVG-20010904/DTD/svg10.dtd">
<svg version="1.0" xmlns="http://www.w3.org/2000/svg"
 width="128.000000pt" height="128.000000pt" viewBox="0 0 128.000000 128.000000"
 preserveAspectRatio="xMidYMid meet">
<metadata>
Created by potrace 1.14, written by Peter Selinger 2001-2017
</metadata>
<g transform="translate(0.000000,128.000000) scale(0.100000,-0.100000)"
fill="#000000" stroke="none">
<path d="M525 1229 c-77 -34 -190 -71 -252 -83 -57 -11 -102 -28 -114 -42 -11
-13 -14 -79 -14 -303 -1 -157 2 -298 6 -313 11 -42 124 -192 201 -269 90 -90
272 -212 302 -203 25 8 183 113 243 161 46 37 98 101 184 228 l55 80 -1 302
c0 263 -3 305 -16 319 -9 8 -65 28 -125 43 -60 15 -161 49 -224 74 -64 26
-125 47 -135 46 -11 0 -60 -19 -110 -40z m206 -22 c87 -40 188 -73 277 -92 53
-12 86 -24 91 -34 11 -22 8 -583 -4 -601 -32 -54 -154 -218 -187 -251 -42 -42
-245 -182 -264 -182 -15 0 -103 55 -174 109 -84 64 -146 129 -224 234 l-70 95
-1 294 c0 224 3 297 12 307 7 7 56 22 110 34 87 20 220 67 298 106 36 17 64
13 136 -19z"/>
<path d="M419 1027 c-48 -12 -99 -54 -116 -96 -31 -74 5 -171 78 -208 l36 -18
-68 -113 -69 -113 57 3 57 3 58 100 c58 101 84 127 119 118 17 -5 19 -15 19
-114 l0 -109 45 0 44 0 3 122 3 123 90 -105 c50 -58 97 -113 106 -123 13 -14
29 -17 75 -15 l58 3 -55 60 c-30 33 -85 94 -122 136 l-67 76 48 54 c26 30 67
79 92 108 25 29 55 64 68 78 12 13 22 27 22 32 0 4 -22 8 -50 8 -54 2 -44 10
-180 -151 -14 -17 -40 -46 -57 -65 l-32 -36 -1 126 0 126 -113 -1 c-63 0 -129
-4 -148 -9z m171 -156 c0 -62 -4 -90 -12 -94 -7 -2 -42 -3 -77 -2 -82 4 -112
29 -113 95 0 36 5 48 26 67 23 20 38 23 102 23 l74 0 0 -89z"/>
<path d="M455 293 c0 -76 4 -108 13 -110 6 -3 12 -1 13 4 0 4 1 54 2 111 2 85
-1 102 -13 102 -12 0 -15 -19 -15 -107z"/>
<path d="M540 328 c0 -11 -5 -15 -15 -12 -8 4 -15 1 -15 -5 0 -6 5 -11 12 -11
9 0 9 -3 0 -12 -19 -19 -14 -30 8 -18 16 9 18 8 14 -5 -4 -8 -1 -15 5 -15 6 0
11 5 11 11 0 6 7 9 15 5 18 -7 20 5 3 22 -9 9 -9 12 0 12 7 0 12 5 12 11 0 6
-6 9 -12 6 -7 -2 -18 3 -25 12 -11 14 -12 14 -13 -1z"/>
<path d="M664 327 c5 -15 2 -17 -14 -12 -11 4 -20 2 -20 -4 0 -6 5 -11 12 -11
9 0 9 -3 0 -12 -18 -18 -15 -27 8 -21 16 4 19 2 14 -13 -5 -18 -5 -18 10 0 8
10 19 15 25 11 6 -3 11 0 11 9 0 8 -6 17 -12 19 -10 4 -10 6 0 6 6 1 12 6 12
12 0 6 -6 9 -12 6 -7 -2 -19 3 -26 12 -12 14 -13 14 -8 -2z"/>
<path d="M785 319 c4 -17 2 -19 -11 -8 -8 6 -18 8 -22 4 -4 -4 -1 -10 6 -12
10 -4 10 -8 1 -19 -16 -19 -3 -30 16 -14 13 11 14 10 9 -4 -3 -9 -1 -16 5 -16
6 0 11 5 11 11 0 6 7 9 15 5 18 -7 20 5 3 22 -9 9 -8 12 6 12 9 0 15 4 11 10
-3 5 -12 7 -20 3 -9 -3 -15 1 -15 11 0 9 -4 16 -9 16 -6 0 -8 -9 -6 -21z"/>
</g>
</svg>
