<?xml version="1.0" standalone="no"?>
<!DOCTYPE svg PUBLIC "-//W3C//DTD SVG 20010904//EN"
 "http://www.w3.org/TR/2001/REC-SVG-20010904/DTD/svg10.dtd">
<svg version="1.0" xmlns="http://www.w3.org/2000/svg"
 width="512.000000pt" height="512.000000pt" viewBox="0 0 512.000000 512.000000"
 preserveAspectRatio="xMidYMid meet">
<metadata>
Created by potrace 1.14, written by Peter Selinger 2001-2017
</metadata>
<g transform="translate(0.000000,512.000000) scale(0.100000,-0.100000)"
fill="#000000" stroke="none">
<path d="M2520 5090 c-23 -7 -133 -46 -737 -267 -313 -113 -318 -115 -588
-167 -11 -3 -40 -9 -65 -15 -25 -5 -61 -13 -80 -16 -19 -3 -64 -12 -100 -20
-36 -8 -164 -35 -284 -60 -252 -53 -286 -69 -331 -159 l-25 -50 3 -1210 c2
-1105 3 -1214 19 -1241 9 -17 51 -74 95 -126 43 -53 92 -113 108 -134 17 -21
35 -43 40 -49 6 -6 37 -45 69 -86 33 -41 63 -77 66 -80 3 -3 24 -27 45 -55 22
-27 92 -113 155 -190 63 -78 130 -161 149 -186 103 -132 272 -273 435 -363 27
-15 255 -146 508 -292 252 -146 474 -272 493 -280 42 -17 110 -18 156 -2 19 6
63 29 99 51 36 22 79 48 95 57 53 30 359 212 385 229 14 8 34 21 46 27 12 6
144 85 295 174 318 190 327 198 559 485 156 193 197 244 472 581 158 194 188
234 197 263 3 9 7 556 8 1217 3 1328 7 1245 -60 1314 -46 47 -90 65 -217 90
-63 12 -131 26 -150 31 -29 7 -387 82 -455 95 -246 47 -287 60 -785 246 -496
186 -559 205 -620 188z m307 -456 c142 -53 274 -103 293 -110 19 -7 109 -40
200 -74 91 -34 183 -68 205 -75 22 -8 207 -48 410 -90 204 -41 403 -83 443
-91 l72 -16 0 -1075 0 -1075 -37 -46 c-21 -26 -40 -49 -43 -52 -3 -3 -25 -30
-50 -60 -25 -30 -47 -57 -50 -60 -3 -3 -17 -21 -32 -42 -15 -20 -33 -42 -40
-50 -18 -19 -82 -97 -178 -218 -46 -58 -87 -107 -90 -110 -3 -3 -23 -27 -45
-55 -22 -27 -53 -66 -70 -86 -47 -56 -108 -129 -135 -165 -21 -28 -223 -155
-511 -324 -147 -86 -252 -148 -408 -241 l-184 -109 -91 52 c-50 28 -109 62
-131 74 -22 12 -107 61 -190 109 -82 48 -244 141 -360 208 -342 196 -326 182
-548 456 -78 95 -186 228 -241 295 -54 66 -115 141 -135 166 -20 25 -75 93
-123 152 l-88 106 0 1076 c0 592 3 1076 6 1076 4 0 113 22 243 50 130 27 247
51 261 54 14 3 48 9 75 15 28 6 61 13 75 15 244 50 245 51 505 146 152 56 286
104 415 150 80 28 152 54 160 58 8 3 47 18 85 33 39 14 71 27 72 28 1 0 118
-42 260 -95z"/>
<path d="M1866 4138 c-246 -22 -448 -128 -562 -293 -115 -167 -141 -418 -62
-615 71 -180 197 -297 391 -365 53 -19 75 -31 69 -39 -5 -6 -123 -202 -262
-436 -139 -234 -260 -435 -268 -447 l-14 -23 219 0 219 0 52 91 c29 50 52 95
52 100 0 5 5 9 10 9 6 0 10 4 10 10 0 5 56 105 123 222 151 261 177 305 224
391 l38 67 140 -2 140 -3 0 -440 0 -440 185 0 185 0 1 485 c1 267 2 489 3 494
0 5 13 -7 29 -25 15 -19 39 -48 54 -64 14 -17 74 -86 133 -155 59 -69 122
-141 139 -160 33 -37 446 -515 481 -557 l20 -24 237 3 238 3 -28 30 c-25 28
-135 152 -207 234 -16 18 -35 39 -40 45 -6 6 -42 47 -80 90 -39 44 -77 87 -85
96 -13 14 -91 102 -147 166 -10 12 -47 54 -83 94 -36 40 -73 82 -83 94 -21 24
-127 144 -142 160 -5 6 -27 31 -48 54 l-38 43 63 72 c35 40 65 74 68 77 3 3
32 37 65 75 33 39 62 72 65 75 3 3 32 36 65 75 56 65 89 104 140 161 11 12 40
46 65 75 25 29 50 57 55 63 6 6 37 42 70 81 33 38 72 83 86 100 15 16 70 79
122 140 53 60 94 112 91 114 -3 3 -104 5 -225 6 l-220 0 -37 -44 c-20 -25 -42
-49 -47 -55 -10 -10 -161 -189 -196 -231 -35 -42 -144 -170 -154 -181 -5 -6
-30 -35 -55 -64 -25 -29 -50 -58 -55 -64 -6 -6 -46 -54 -90 -106 -44 -52 -82
-97 -85 -100 -3 -3 -34 -40 -70 -82 -35 -43 -67 -78 -70 -78 -3 0 -5 223 -5
496 0 323 -3 498 -10 502 -14 9 -782 9 -879 0z m519 -666 l0 -374 -265 5
c-287 4 -325 11 -400 65 -70 50 -125 129 -138 196 -13 65 -7 210 11 263 37
105 152 193 277 211 30 4 158 7 285 7 l230 0 0 -373z"/>
<path d="M2220 1400 l0 -437 55 -2 55 -1 0 440 0 441 -55 -2 -54 -2 -1 -437z"/>
<path d="M1743 1744 c-47 -24 -75 -75 -78 -143 -2 -31 -3 -58 -4 -61 -1 -3
-13 -6 -28 -7 -15 0 -35 -11 -45 -23 -16 -20 -18 -45 -18 -212 0 -184 5 -221
34 -240 6 -4 113 -8 237 -8 214 0 228 1 253 21 l26 20 0 199 c0 262 14 245
-198 246 -87 1 -164 4 -170 7 -16 11 -7 95 13 117 14 15 31 20 70 20 57 0 85
-19 85 -58 0 -19 6 -22 44 -22 l44 0 -9 38 c-5 20 -9 39 -9 42 0 10 -45 55
-65 66 -33 18 -146 16 -182 -2z m295 -451 l2 -163 -195 0 -195 0 0 163 0 163
193 0 192 -1 3 -162z"/>
<path d="M1808 1379 c-19 -11 -24 -59 -8 -75 6 -6 6 -22 0 -43 -5 -19 -8 -37
-5 -41 5 -8 82 -6 91 3 4 3 1 20 -6 37 -10 23 -10 34 -1 43 18 18 13 65 -8 77
-24 12 -41 12 -63 -1z"/>
<path d="M2601 1581 c0 -9 4 -39 8 -68 8 -57 8 -57 -49 -13 -57 44 -58 44 -79
2 l-20 -39 52 -18 c29 -10 56 -21 60 -25 5 -4 -19 -17 -52 -30 l-60 -22 21
-39 c20 -40 20 -40 47 -23 14 9 37 27 52 40 24 23 45 33 36 17 -3 -5 -8 -35
-12 -69 l-6 -60 33 1 c49 1 58 10 47 48 -5 17 -9 44 -9 60 l0 27 52 -40 52
-41 22 37 c13 21 22 39 21 40 -1 1 -31 13 -66 26 l-65 25 67 23 66 23 -20 39
c-22 43 -21 43 -87 -11 l-44 -35 7 60 c4 32 8 63 9 68 0 6 -18 11 -41 11 -33
1 -43 -2 -42 -14z"/>
<path d="M3086 1560 c2 -19 7 -50 10 -69 5 -28 3 -33 -8 -25 -7 6 -32 26 -55
44 -24 18 -45 31 -47 29 -5 -6 -36 -67 -36 -72 0 -4 38 -19 110 -44 9 -3 -9
-14 -45 -28 -32 -12 -60 -26 -62 -31 -2 -5 6 -24 17 -42 l21 -34 37 28 c20 16
43 34 50 41 20 20 23 16 18 -19 -18 -110 -19 -105 22 -102 20 1 40 2 44 3 7 1
6 22 -8 105 l-5 28 28 -21 c15 -12 40 -30 55 -41 l26 -20 21 36 c12 19 21 37
21 38 0 2 -27 14 -60 26 -54 20 -71 40 -35 40 11 0 75 25 94 37 2 1 -7 18 -19
38 l-22 35 -41 -32 c-23 -17 -48 -36 -56 -42 -11 -9 -13 -5 -8 19 3 17 9 49
12 72 l6 41 -45 -1 -45 -2 5 -35z"/>
<path d="M3575 1528 l7 -71 -43 35 c-65 51 -65 51 -88 12 -12 -19 -21 -37 -21
-39 0 -2 24 -11 53 -20 51 -17 82 -35 60 -35 -6 0 -28 -8 -49 -17 -22 -9 -42
-17 -46 -17 -17 -2 -20 -18 -6 -33 9 -10 19 -29 23 -41 7 -23 7 -23 25 -5 10
10 26 25 37 33 10 8 27 21 37 29 17 14 17 11 11 -57 l-8 -71 37 3 c21 2 40 7
43 10 3 3 1 33 -4 66 -5 33 -9 60 -8 60 1 0 26 -18 55 -40 l54 -40 21 38 21
37 -65 26 c-67 27 -67 28 -11 45 47 14 70 28 66 41 -3 8 -6 18 -6 21 0 4 -7
15 -15 26 -13 17 -16 17 -57 -16 -50 -41 -74 -56 -65 -41 3 5 9 36 12 69 l7
59 -42 2 -42 2 7 -71z"/>
</g>
</svg>
